<svg width="96" height="96" viewBox="0 0 96 96" fill="none" xmlns="http://www.w3.org/2000/svg">
<g clip-path="url(#clip0_5022_9060)">
<path d="M47.9999 88C69.9999 88 87.9999 70 87.9999 48C87.9999 26 69.9999 8 47.9999 8C25.9999 8 7.99988 26 7.99988 48C7.99988 70 25.9999 88 47.9999 88Z" stroke="#80D1FF" stroke-width="6" stroke-linecap="round" stroke-linejoin="round"/>
<path d="M62.6655 58.6643L50.6663 49.665V31.3331C50.6663 29.4899 49.1764 28 47.3331 28C45.4899 28 44 29.4899 44 31.3331V51.3317C44 52.3816 44.4933 53.3716 45.3333 53.9982L58.6655 63.9975C59.2654 64.4475 59.9655 64.6641 60.6621 64.6641C61.6786 64.6641 62.6786 64.2075 63.3319 63.3275C64.4388 61.8574 64.1387 59.7676 62.6655 58.6643Z" fill="#80D1FF"/>
</g>
<defs>
<clipPath id="clip0_5022_9060">
<rect width="96" height="96" fill="white"/>
</clipPath>
</defs>
</svg>
