<svg width="168" height="130" viewBox="0 0 168 130" fill="none" xmlns="http://www.w3.org/2000/svg">
<path fill-rule="evenodd" clip-rule="evenodd" d="M31 0H161V130H31V0Z" fill="white"/>
<path fill-rule="evenodd" clip-rule="evenodd" d="M54.0486 72.4066C53.045 72.4066 52.2593 73.1087 52.2593 74.1331C52.2593 75.1583 53.0491 75.8563 54.0486 75.8563C55.0474 75.8563 55.8378 75.1535 55.8378 74.1331C55.8378 73.1087 55.0514 72.4066 54.0486 72.4066ZM54.0486 75.3626C53.333 75.3626 52.8022 74.8399 52.8022 74.1331C52.8022 73.427 53.3289 72.9003 54.0486 72.9003C54.7594 72.9003 55.2942 73.4351 55.2942 74.1331C55.2942 74.8271 54.7547 75.3626 54.0486 75.3626ZM71.4589 66.3678H62.7487L63.7387 51.2282L58.0823 66.3678H49.9939L62.8276 32.1479H71.434L70.4405 47.4952L76.2042 32.1479H84.2933L71.4589 66.3678ZM72.5097 66.3678L85.3427 32.1479H93.4311L80.5981 66.3678H72.5097Z" fill="black"/>
<path fill-rule="evenodd" clip-rule="evenodd" d="M49.0611 54.5726C37.7584 67.846 27.0963 85.5073 36.5141 93.6402C45.6397 101.522 57.0463 96.8552 64.8238 93.7441C72.6013 90.6329 158.566 53.302 158.566 53.302C159.395 52.8872 159.24 52.3686 158.203 52.6276C157.785 52.7321 64.6168 77.9813 64.6168 77.9813C52.7941 81.3002 39.3136 74.067 49.0611 54.5726Z" fill="black"/>
<path fill-rule="evenodd" clip-rule="evenodd" d="M54.3534 74.2546C54.6043 74.2424 54.8006 74.1129 54.8006 73.7656C54.8006 73.3178 54.5079 73.2051 54.0189 73.2051H53.3162V75.0618H53.7849V74.2714H53.8638L54.2907 75.0618H54.8296L54.3534 74.2546ZM54.0526 73.9538H53.7856V73.5228H54.0108C54.1491 73.5228 54.3076 73.539 54.3076 73.7191C54.3076 73.9119 54.2158 73.9538 54.0526 73.9538ZM135.356 32.0435C134.353 32.0435 133.567 32.7462 133.567 33.77C133.567 34.7944 134.357 35.4925 135.356 35.4925C136.355 35.4925 137.146 34.7897 137.146 33.77C137.146 32.7462 136.36 32.0435 135.356 32.0435ZM135.356 35.0001C134.641 35.0001 134.11 34.4775 134.11 33.7707C134.11 33.0645 134.637 32.5378 135.356 32.5378C136.067 32.5378 136.603 33.0726 136.603 33.7707C136.603 34.4647 136.063 35.0001 135.356 35.0001Z" fill="black"/>
<path fill-rule="evenodd" clip-rule="evenodd" d="M135.662 33.8913C135.913 33.8792 136.11 33.7497 136.11 33.4024C136.11 32.9546 135.816 32.8419 135.328 32.8419H134.625V34.698H135.093V33.9082H135.173L135.599 34.698H136.139L135.662 33.8913ZM135.36 33.5906H135.093V33.1596H135.319C135.457 33.1596 135.616 33.1765 135.616 33.3565C135.616 33.5487 135.524 33.5906 135.36 33.5906ZM130.027 37.8516L132.201 32.1479H107.521L99.0464 42.4141L102.959 32.1479H94.7665L82.036 66.3678H90.1244L95.5596 52.0577L95.9319 66.3678L120.75 66.3138L123.113 59.7314H113.677L116.777 51.4359H124.554L126.947 45.0585H119.17L121.836 37.8516H130.027ZM103.956 64.0862L103.438 46.2509L115.667 32.8237L103.956 64.0862Z" fill="black"/>
</svg>
